<svg width="400" height="300" viewBox="0 0 400 300" fill="none" xmlns="http://www.w3.org/2000/svg">
<rect width="400" height="300" fill="white"/>
<path d="M370.414 18.9078C370.094 18.9078 369.851 18.8124 369.686 18.6217C369.526 18.4309 369.446 18.1578 369.446 17.8024V14.2649H369.972V17.7633C369.972 17.9151 369.992 18.043 370.031 18.147C370.074 18.251 370.137 18.3291 370.219 18.3811C370.302 18.4331 370.404 18.4591 370.525 18.4591C370.577 18.4591 370.627 18.457 370.675 18.4526C370.727 18.4439 370.774 18.4331 370.818 18.4201L370.805 18.8623C370.735 18.8753 370.668 18.8861 370.603 18.8948C370.542 18.9035 370.479 18.9078 370.414 18.9078Z" fill="#434343"/>
<path d="M366.992 18.9077C366.776 18.9077 366.581 18.8665 366.407 18.7842C366.238 18.6975 366.104 18.5804 366.004 18.433C365.904 18.2856 365.854 18.1209 365.854 17.9388C365.854 17.7047 365.913 17.5205 366.03 17.3861C366.151 17.2517 366.349 17.1563 366.622 17.1C366.899 17.0436 367.276 17.0154 367.753 17.0154H368.046V17.3601H367.76C367.495 17.3601 367.274 17.3688 367.097 17.3861C366.919 17.4034 366.778 17.4338 366.674 17.4771C366.57 17.5205 366.496 17.5768 366.453 17.6462C366.409 17.7156 366.388 17.8023 366.388 17.9063C366.388 18.084 366.448 18.2293 366.57 18.342C366.696 18.4547 366.865 18.5111 367.077 18.5111C367.25 18.5111 367.402 18.4699 367.532 18.3875C367.667 18.3051 367.771 18.1924 367.844 18.0494C367.922 17.9063 367.961 17.7416 367.961 17.5552V16.8139C367.961 16.5451 367.907 16.3522 367.799 16.2351C367.69 16.1137 367.513 16.053 367.266 16.053C367.075 16.053 366.891 16.0812 366.713 16.1376C366.535 16.1896 366.353 16.2763 366.167 16.3977L365.985 16.014C366.097 15.936 366.225 15.8688 366.368 15.8124C366.511 15.7518 366.661 15.7062 366.817 15.6759C366.973 15.6455 367.123 15.6304 367.266 15.6304C367.539 15.6304 367.764 15.6759 367.942 15.7669C368.12 15.8536 368.252 15.988 368.339 16.1701C368.425 16.3478 368.469 16.5776 368.469 16.8594V18.8492H367.974V18.1144H368.033C367.998 18.2791 367.931 18.42 367.831 18.5371C367.736 18.6541 367.617 18.7452 367.474 18.8102C367.331 18.8752 367.17 18.9077 366.992 18.9077Z" fill="#434343"/>
<path d="M362.302 18.8492V15.6889H362.815V16.3912H362.744C362.835 16.1397 362.982 15.9512 363.186 15.8255C363.394 15.6954 363.632 15.6304 363.901 15.6304C364.153 15.6304 364.361 15.6759 364.525 15.7669C364.694 15.8536 364.82 15.9902 364.903 16.1766C364.985 16.363 365.026 16.5971 365.026 16.8789V18.8492H364.499V16.9114C364.499 16.7163 364.473 16.5559 364.421 16.4302C364.374 16.3045 364.296 16.2113 364.187 16.1506C364.083 16.0899 363.947 16.0595 363.778 16.0595C363.587 16.0595 363.42 16.1007 363.277 16.1831C363.134 16.2655 363.023 16.3803 362.945 16.5277C362.867 16.6751 362.828 16.8485 362.828 17.048V18.8492H362.302Z" fill="#434343"/>
<path d="M359.971 18.8493V15.689H360.485V16.4368H360.42C360.493 16.1811 360.621 15.9882 360.803 15.8581C360.985 15.7237 361.226 15.6457 361.525 15.624L361.714 15.6045L361.753 16.0597L361.421 16.0987C361.126 16.1247 360.899 16.2201 360.738 16.3848C360.582 16.5452 360.504 16.7663 360.504 17.0481V18.8493H359.971Z" fill="#434343"/>
<path d="M357.444 18.9078C357.189 18.9078 356.976 18.8623 356.807 18.7712C356.642 18.6759 356.517 18.535 356.43 18.3486C356.348 18.1622 356.306 17.9302 356.306 17.6528V15.689H356.833V17.6463C356.833 17.8327 356.857 17.9887 356.905 18.1145C356.957 18.2358 357.037 18.3269 357.145 18.3876C357.254 18.4439 357.388 18.4721 357.548 18.4721C357.73 18.4721 357.889 18.4309 358.023 18.3486C358.157 18.2662 358.264 18.1513 358.342 18.0039C358.42 17.8565 358.459 17.6831 358.459 17.4837V15.689H358.986V18.8493H358.472V18.121H358.556C358.47 18.3767 358.327 18.5718 358.127 18.7062C357.932 18.8406 357.704 18.9078 357.444 18.9078Z" fill="#434343"/>
<path d="M354.026 18.9077C353.718 18.9077 353.452 18.8405 353.226 18.7061C353.001 18.5718 352.825 18.3832 352.7 18.1404C352.578 17.8933 352.518 17.6029 352.518 17.269C352.518 16.9352 352.578 16.647 352.7 16.4042C352.825 16.1571 353.001 15.9663 353.226 15.832C353.452 15.6976 353.718 15.6304 354.026 15.6304C354.334 15.6304 354.601 15.6976 354.826 15.832C355.051 15.9663 355.225 16.1571 355.346 16.4042C355.472 16.647 355.535 16.9352 355.535 17.269C355.535 17.6029 355.472 17.8933 355.346 18.1404C355.225 18.3832 355.051 18.5718 354.826 18.7061C354.601 18.8405 354.334 18.9077 354.026 18.9077ZM354.026 18.485C354.325 18.485 354.562 18.381 354.735 18.1729C354.913 17.9605 355.002 17.657 355.002 17.2625C355.002 16.8724 354.913 16.5733 354.735 16.3652C354.562 16.1571 354.325 16.053 354.026 16.053C353.731 16.053 353.495 16.1571 353.317 16.3652C353.14 16.5733 353.051 16.8724 353.051 17.2625C353.051 17.657 353.14 17.9605 353.317 18.1729C353.495 18.381 353.731 18.485 354.026 18.485Z" fill="#434343"/>
<path d="M350.084 18.8948L350.045 18.4461L350.435 18.4201C350.587 18.4071 350.713 18.3703 350.812 18.3096C350.912 18.2445 350.988 18.1535 351.04 18.0364C351.092 17.9194 351.118 17.7828 351.118 17.6268V14.2649H351.651V17.6333C351.651 17.8804 351.608 18.095 351.521 18.277C351.435 18.4548 351.307 18.5935 351.138 18.6932C350.969 18.7929 350.758 18.8515 350.507 18.8688L350.084 18.8948Z" fill="#434343"/>
<path d="M391.218 11.6827C390.897 11.6827 390.654 11.5873 390.49 11.3966C390.329 11.2058 390.249 10.9327 390.249 10.5773V7.03979H390.776V10.5382C390.776 10.69 390.795 10.8179 390.834 10.9219C390.878 11.0259 390.94 11.104 391.023 11.156C391.105 11.208 391.207 11.234 391.328 11.234C391.38 11.234 391.43 11.2319 391.478 11.2275C391.53 11.2189 391.578 11.208 391.621 11.195L391.608 11.6372C391.539 11.6502 391.472 11.661 391.406 11.6697C391.346 11.6784 391.283 11.6827 391.218 11.6827Z" fill="#0052B2"/>
<path d="M387.796 11.6826C387.579 11.6826 387.384 11.6414 387.211 11.5591C387.042 11.4724 386.907 11.3553 386.808 11.2079C386.708 11.0605 386.658 10.8958 386.658 10.7137C386.658 10.4796 386.716 10.2954 386.834 10.161C386.955 10.0266 387.152 9.93124 387.425 9.87488C387.703 9.81852 388.08 9.79034 388.557 9.79034H388.849V10.135H388.563C388.299 10.135 388.078 10.1437 387.9 10.161C387.722 10.1783 387.581 10.2087 387.477 10.252C387.373 10.2954 387.3 10.3517 387.256 10.4211C387.213 10.4905 387.191 10.5772 387.191 10.6812C387.191 10.859 387.252 11.0042 387.373 11.1169C387.499 11.2296 387.668 11.286 387.88 11.286C388.054 11.286 388.206 11.2448 388.336 11.1624C388.47 11.08 388.574 10.9673 388.648 10.8243C388.726 10.6812 388.765 10.5165 388.765 10.3301V9.58876C388.765 9.31998 388.711 9.12707 388.602 9.01002C388.494 8.88864 388.316 8.82795 388.069 8.82795C387.878 8.82795 387.694 8.85613 387.516 8.91248C387.339 8.9645 387.156 9.05121 386.97 9.17259L386.788 8.78893C386.901 8.7109 387.029 8.64371 387.172 8.58735C387.315 8.52666 387.464 8.48114 387.62 8.45079C387.776 8.42045 387.926 8.40527 388.069 8.40527C388.342 8.40527 388.568 8.45079 388.745 8.54183C388.923 8.62853 389.055 8.76292 389.142 8.945C389.229 9.12274 389.272 9.3525 389.272 9.63428V11.6241H388.778V10.8893H388.836C388.802 11.054 388.734 11.1949 388.635 11.312C388.539 11.429 388.42 11.5201 388.277 11.5851C388.134 11.6501 387.974 11.6826 387.796 11.6826Z" fill="#0052B2"/>
<path d="M385.225 7.67695V7.08521H385.875V7.67695H385.225ZM385.29 11.6241V8.46377H385.816V11.6241H385.29Z" fill="#0052B2"/>
<path d="M384.284 11.6826C383.911 11.6826 383.632 11.5829 383.445 11.3835C383.259 11.1841 383.166 10.9001 383.166 10.5316V8.87344H382.548V8.46377H383.166V7.49487H383.692V8.46377H384.694V8.87344H383.692V10.4796C383.692 10.7267 383.744 10.9153 383.848 11.0453C383.952 11.1711 384.122 11.2339 384.356 11.2339C384.425 11.2339 384.494 11.2252 384.564 11.2079C384.633 11.1906 384.696 11.1732 384.752 11.1559L384.843 11.559C384.787 11.5894 384.705 11.6176 384.596 11.6436C384.488 11.6696 384.384 11.6826 384.284 11.6826Z" fill="#0052B2"/>
<path d="M379.32 11.6241V8.4638H379.834V9.16609H379.762C379.854 8.91465 380.001 8.72607 380.205 8.60035C380.413 8.4703 380.651 8.40527 380.92 8.40527C381.171 8.40527 381.379 8.45079 381.544 8.54183C381.713 8.62853 381.839 8.76509 381.921 8.9515C382.004 9.13791 382.045 9.37201 382.045 9.65379V11.6241H381.518V9.6863C381.518 9.49122 381.492 9.33082 381.44 9.2051C381.392 9.07938 381.314 8.98618 381.206 8.92549C381.102 8.8648 380.965 8.83445 380.796 8.83445C380.606 8.83445 380.439 8.87563 380.296 8.958C380.153 9.04037 380.042 9.15525 379.964 9.30264C379.886 9.45004 379.847 9.62344 379.847 9.82286V11.6241H379.32Z" fill="#0052B2"/>
<path d="M377.283 11.6826C376.95 11.6826 376.661 11.6176 376.419 11.4875C376.18 11.3532 375.994 11.1646 375.859 10.9218C375.729 10.679 375.664 10.3886 375.664 10.0505C375.664 9.72098 375.729 9.43486 375.859 9.1921C375.989 8.945 376.167 8.75208 376.393 8.61336C376.622 8.47464 376.887 8.40527 377.186 8.40527C377.472 8.40527 377.717 8.46813 377.921 8.59385C378.124 8.71957 378.281 8.89731 378.389 9.12707C378.502 9.35683 378.558 9.63211 378.558 9.95291V10.1545H376.067V9.80985H378.207L378.103 9.89439C378.103 9.54758 378.025 9.2788 377.869 9.08805C377.717 8.89297 377.494 8.79543 377.199 8.79543C376.978 8.79543 376.789 8.84746 376.633 8.9515C376.481 9.05121 376.367 9.1921 376.289 9.37417C376.211 9.55191 376.172 9.76 376.172 9.99843V10.0374C376.172 10.3019 376.213 10.5251 376.295 10.7072C376.382 10.8893 376.51 11.028 376.679 11.1234C376.848 11.2144 377.049 11.26 377.283 11.26C377.47 11.26 377.65 11.2318 377.823 11.1754C378.001 11.1147 378.168 11.0172 378.324 10.8828L378.506 11.2534C378.363 11.3835 378.181 11.4875 377.96 11.5656C377.739 11.6436 377.513 11.6826 377.283 11.6826Z" fill="#0052B2"/>
<path d="M373.795 11.6826C373.63 11.6826 373.47 11.6653 373.314 11.6306C373.162 11.6003 373.019 11.5569 372.885 11.5005C372.755 11.4399 372.642 11.3683 372.547 11.286L372.716 10.9153C372.82 10.9977 372.932 11.067 373.054 11.1234C373.175 11.1754 373.299 11.2144 373.424 11.2404C373.55 11.2665 373.678 11.2795 373.808 11.2795C374.055 11.2795 374.242 11.2339 374.367 11.1429C374.493 11.0519 374.556 10.9283 374.556 10.7722C374.556 10.6509 374.515 10.5555 374.432 10.4861C374.35 10.4124 374.22 10.3561 374.042 10.3171L373.451 10.187C373.177 10.1307 372.974 10.0331 372.839 9.89439C372.709 9.75566 372.644 9.57576 372.644 9.35467C372.644 9.15958 372.694 8.99268 372.794 8.85396C372.898 8.7109 373.043 8.60035 373.229 8.52232C373.416 8.44429 373.633 8.40527 373.88 8.40527C374.027 8.40527 374.168 8.42045 374.302 8.45079C374.437 8.48114 374.562 8.52666 374.68 8.58735C374.801 8.64371 374.905 8.71523 374.992 8.80194L374.816 9.17259C374.734 9.09456 374.64 9.02953 374.536 8.97751C374.432 8.92115 374.324 8.87997 374.211 8.85396C374.103 8.82361 373.992 8.80844 373.88 8.80844C373.637 8.80844 373.453 8.85613 373.327 8.9515C373.201 9.04687 373.138 9.17259 373.138 9.32865C373.138 9.45004 373.177 9.54975 373.255 9.62778C373.333 9.70581 373.455 9.76217 373.62 9.79685L374.211 9.9204C374.493 9.98109 374.703 10.0786 374.842 10.213C374.985 10.3431 375.057 10.5208 375.057 10.7462C375.057 10.937 375.005 11.1039 374.901 11.2469C374.797 11.3857 374.649 11.494 374.458 11.5721C374.272 11.6458 374.051 11.6826 373.795 11.6826Z" fill="#0052B2"/>
<path d="M370.665 11.6826C370.5 11.6826 370.339 11.6653 370.183 11.6306C370.032 11.6003 369.889 11.5569 369.754 11.5005C369.624 11.4399 369.511 11.3683 369.416 11.286L369.585 10.9153C369.689 10.9977 369.802 11.067 369.923 11.1234C370.045 11.1754 370.168 11.2144 370.294 11.2404C370.42 11.2665 370.547 11.2795 370.678 11.2795C370.925 11.2795 371.111 11.2339 371.237 11.1429C371.362 11.0519 371.425 10.9283 371.425 10.7722C371.425 10.6509 371.384 10.5555 371.302 10.4861C371.219 10.4124 371.089 10.3561 370.912 10.3171L370.32 10.187C370.047 10.1307 369.843 10.0331 369.709 9.89439C369.579 9.75566 369.514 9.57576 369.514 9.35467C369.514 9.15958 369.563 8.99268 369.663 8.85396C369.767 8.7109 369.912 8.60035 370.099 8.52232C370.285 8.44429 370.502 8.40527 370.749 8.40527C370.896 8.40527 371.037 8.42045 371.172 8.45079C371.306 8.48114 371.432 8.52666 371.549 8.58735C371.67 8.64371 371.774 8.71523 371.861 8.80194L371.685 9.17259C371.603 9.09456 371.51 9.02953 371.406 8.97751C371.302 8.92115 371.193 8.87997 371.081 8.85396C370.972 8.82361 370.862 8.80844 370.749 8.80844C370.506 8.80844 370.322 8.85613 370.196 8.9515C370.071 9.04687 370.008 9.17259 370.008 9.32865C370.008 9.45004 370.047 9.54975 370.125 9.62778C370.203 9.70581 370.324 9.76217 370.489 9.79685L371.081 9.9204C371.362 9.98109 371.573 10.0786 371.711 10.213C371.855 10.3431 371.926 10.5208 371.926 10.7462C371.926 10.937 371.874 11.1039 371.77 11.2469C371.666 11.3857 371.519 11.494 371.328 11.5721C371.141 11.6458 370.92 11.6826 370.665 11.6826Z" fill="#0052B2"/>
<path d="M365.929 11.6242V7.03979H368.823V7.48848H366.449V9.07513H368.686V9.52382H366.449V11.1755H368.823V11.6242H365.929Z" fill="#0052B2"/>
<path d="M360.492 11.6242V7.03979H361.018V9.16617H360.934C361.025 8.91473 361.172 8.72616 361.376 8.60044C361.584 8.47038 361.823 8.40536 362.091 8.40536C362.343 8.40536 362.551 8.45088 362.716 8.54191C362.885 8.63295 363.01 8.77168 363.093 8.95809C363.175 9.14016 363.216 9.37209 363.216 9.65387V11.6242H362.69V9.68639C362.69 9.49131 362.664 9.33091 362.612 9.20519C362.564 9.07947 362.486 8.98626 362.377 8.92557C362.273 8.86488 362.137 8.83454 361.968 8.83454C361.777 8.83454 361.61 8.87572 361.467 8.95809C361.324 9.04045 361.213 9.15533 361.135 9.30273C361.057 9.45012 361.018 9.62353 361.018 9.82294V11.6242H360.492Z" fill="#0052B2"/>
<path d="M358.821 11.6826C358.505 11.6826 358.232 11.6133 358.002 11.4745C357.772 11.3358 357.594 11.1429 357.469 10.8958C357.347 10.6444 357.287 10.3539 357.287 10.0244C357.287 9.69064 357.347 9.40235 357.469 9.15958C357.594 8.91682 357.772 8.73041 358.002 8.60035C358.232 8.4703 358.505 8.40527 358.821 8.40527C359.016 8.40527 359.209 8.43995 359.4 8.50932C359.591 8.57868 359.749 8.67622 359.875 8.80194L359.693 9.1856C359.567 9.06421 359.428 8.97534 359.276 8.91899C359.129 8.86263 358.988 8.83445 358.854 8.83445C358.524 8.83445 358.271 8.93849 358.093 9.14658C357.915 9.35033 357.826 9.64512 357.826 10.0309C357.826 10.4081 357.915 10.7072 358.093 10.9283C358.271 11.1451 358.524 11.2534 358.854 11.2534C358.988 11.2534 359.129 11.2253 359.276 11.1689C359.428 11.1126 359.567 11.0215 359.693 10.8958L359.875 11.2795C359.749 11.4052 359.589 11.5049 359.393 11.5786C359.203 11.6479 359.012 11.6826 358.821 11.6826Z" fill="#0052B2"/>
<path d="M355.445 11.6826C355.111 11.6826 354.823 11.6176 354.58 11.4875C354.342 11.3532 354.155 11.1646 354.021 10.9218C353.891 10.679 353.826 10.3886 353.826 10.0505C353.826 9.72098 353.891 9.43486 354.021 9.1921C354.151 8.945 354.329 8.75208 354.554 8.61336C354.784 8.47464 355.048 8.40527 355.347 8.40527C355.633 8.40527 355.878 8.46813 356.082 8.59385C356.286 8.71957 356.442 8.89731 356.55 9.12707C356.663 9.35683 356.719 9.63211 356.719 9.95291V10.1545H354.229V9.80985H356.368L356.264 9.89439C356.264 9.54758 356.186 9.2788 356.03 9.08805C355.878 8.89297 355.655 8.79543 355.36 8.79543C355.139 8.79543 354.951 8.84746 354.795 8.9515C354.643 9.05121 354.528 9.1921 354.45 9.37417C354.372 9.55191 354.333 9.76 354.333 9.99843V10.0374C354.333 10.3019 354.374 10.5251 354.456 10.7072C354.543 10.8893 354.671 11.028 354.84 11.1234C355.009 11.2144 355.211 11.26 355.445 11.26C355.631 11.26 355.811 11.2318 355.985 11.1754C356.162 11.1147 356.329 11.0172 356.485 10.8828L356.667 11.2534C356.524 11.3835 356.342 11.4875 356.121 11.5656C355.9 11.6436 355.675 11.6826 355.445 11.6826Z" fill="#0052B2"/>
<path d="M351.801 11.6242V7.50149H350.136V7.03979H354.005V7.50149H352.341V11.6242H351.801Z" fill="#0052B2"/>
<path fill-rule="evenodd" clip-rule="evenodd" d="M348.51 19L348.51 7L348.955 7L348.955 19L348.51 19Z" fill="black"/>
<path d="M344.109 7.83423H346.305V15.1621C346.305 15.8394 346.153 16.4278 345.848 16.9273C345.547 17.4268 345.128 17.8116 344.591 18.0819C344.054 18.3522 343.43 18.4873 342.718 18.4873C342.085 18.4873 341.51 18.3761 340.994 18.1537C340.481 17.928 340.073 17.5859 339.772 17.1274C339.471 16.6656 339.323 16.0857 339.326 15.3878H341.538C341.545 15.665 341.601 15.9027 341.707 16.1011C341.816 16.2961 341.965 16.4467 342.153 16.5527C342.345 16.6553 342.571 16.7067 342.831 16.7067C343.105 16.7067 343.335 16.6485 343.524 16.5322C343.715 16.4124 343.861 16.238 343.96 16.0088C344.059 15.7796 344.109 15.4973 344.109 15.1621V7.83423Z" fill="#434343"/>
<path d="M331.053 18.3436V7.83423H338.134V9.66619H333.275V12.1704H337.77V14.0023H333.275V16.5117H338.155V18.3436H331.053Z" fill="#0052B2"/>
<path d="M321 9.66619V7.83423H329.631V9.66619H326.414V18.3436H324.217V9.66619H321Z" fill="#0052B2"/>
<path d="M61.0455 107C60.858 106.426 60.6108 105.912 60.304 105.457C60.0028 104.997 59.642 104.605 59.2216 104.281C58.8068 103.957 58.3352 103.71 57.8068 103.54C57.2784 103.369 56.6989 103.284 56.0682 103.284C55.0341 103.284 54.0938 103.551 53.2472 104.085C52.4006 104.619 51.7273 105.406 51.2273 106.446C50.7273 107.486 50.4773 108.761 50.4773 110.273C50.4773 111.784 50.7301 113.06 51.2358 114.099C51.7415 115.139 52.4261 115.926 53.2898 116.46C54.1534 116.994 55.125 117.261 56.2045 117.261C57.2045 117.261 58.0852 117.048 58.8466 116.622C59.6136 116.19 60.2102 115.582 60.6364 114.798C61.0682 114.009 61.2841 113.08 61.2841 112.011L61.9318 112.148H56.6818V110.273H63.3295V112.148C63.3295 113.585 63.0227 114.835 62.4091 115.898C61.8011 116.96 60.9602 117.784 59.8864 118.369C58.8182 118.949 57.5909 119.239 56.2045 119.239C54.6591 119.239 53.3011 118.875 52.1307 118.148C50.9659 117.42 50.0568 116.386 49.4034 115.045C48.7557 113.705 48.4318 112.114 48.4318 110.273C48.4318 108.892 48.6165 107.651 48.9858 106.548C49.3608 105.44 49.8892 104.497 50.571 103.719C51.2528 102.94 52.0597 102.344 52.9915 101.929C53.9233 101.514 54.9489 101.307 56.0682 101.307C56.9886 101.307 57.8466 101.446 58.642 101.724C59.4432 101.997 60.1562 102.386 60.7812 102.892C61.4119 103.392 61.9375 103.991 62.358 104.69C62.7784 105.384 63.0682 106.153 63.2273 107H61.0455ZM66.9496 119V101.545H77.4837V103.42H69.0632V109.318H76.9382V111.193H69.0632V117.125H77.62V119H66.9496ZM80.3388 103.42V101.545H93.4297V103.42H87.9411V119H85.8274V103.42H80.3388ZM49.1136 159V141.545H55.0114C56.3807 141.545 57.5 141.793 58.3693 142.287C59.2443 142.776 59.892 143.438 60.3125 144.273C60.733 145.108 60.9432 146.04 60.9432 147.068C60.9432 148.097 60.733 149.031 60.3125 149.872C59.8977 150.713 59.2557 151.384 58.3864 151.884C57.517 152.378 56.4034 152.625 55.0455 152.625H50.8182V150.75H54.9773C55.9148 150.75 56.6676 150.588 57.2358 150.264C57.804 149.94 58.2159 149.503 58.4716 148.952C58.733 148.395 58.8636 147.767 58.8636 147.068C58.8636 146.369 58.733 145.744 58.4716 145.193C58.2159 144.642 57.8011 144.21 57.2273 143.898C56.6534 143.58 55.892 143.42 54.9432 143.42H51.2273V159H49.1136ZM79.0753 150.273C79.0753 152.114 78.7429 153.705 78.0781 155.045C77.4134 156.386 76.5014 157.42 75.3423 158.148C74.1832 158.875 72.8594 159.239 71.3707 159.239C69.8821 159.239 68.5582 158.875 67.3991 158.148C66.2401 157.42 65.3281 156.386 64.6634 155.045C63.9986 153.705 63.6662 152.114 63.6662 150.273C63.6662 148.432 63.9986 146.841 64.6634 145.5C65.3281 144.159 66.2401 143.125 67.3991 142.398C68.5582 141.67 69.8821 141.307 71.3707 141.307C72.8594 141.307 74.1832 141.67 75.3423 142.398C76.5014 143.125 77.4134 144.159 78.0781 145.5C78.7429 146.841 79.0753 148.432 79.0753 150.273ZM77.0298 150.273C77.0298 148.761 76.777 147.486 76.2713 146.446C75.7713 145.406 75.0923 144.619 74.2344 144.085C73.3821 143.551 72.4276 143.284 71.3707 143.284C70.3139 143.284 69.3565 143.551 68.4986 144.085C67.6463 144.619 66.9673 145.406 66.4616 146.446C65.9616 147.486 65.7116 148.761 65.7116 150.273C65.7116 151.784 65.9616 153.06 66.4616 154.099C66.9673 155.139 67.6463 155.926 68.4986 156.46C69.3565 156.994 70.3139 157.261 71.3707 157.261C72.4276 157.261 73.3821 156.994 74.2344 156.46C75.0923 155.926 75.7713 155.139 76.2713 154.099C76.777 153.06 77.0298 151.784 77.0298 150.273ZM92.1747 145.909C92.0724 145.045 91.6577 144.375 90.9304 143.898C90.2031 143.42 89.3111 143.182 88.2543 143.182C87.4815 143.182 86.8054 143.307 86.2259 143.557C85.652 143.807 85.2031 144.151 84.8793 144.588C84.5611 145.026 84.402 145.523 84.402 146.08C84.402 146.545 84.5128 146.946 84.7344 147.281C84.9616 147.611 85.2514 147.886 85.6037 148.108C85.956 148.324 86.3253 148.503 86.7116 148.645C87.098 148.781 87.4531 148.892 87.777 148.977L89.5497 149.455C90.0043 149.574 90.5099 149.739 91.0668 149.949C91.6293 150.159 92.1662 150.446 92.6776 150.81C93.1946 151.168 93.6207 151.628 93.956 152.19C94.2912 152.753 94.4588 153.443 94.4588 154.261C94.4588 155.205 94.2116 156.057 93.7173 156.818C93.2287 157.58 92.5128 158.185 91.5696 158.634C90.6321 159.082 89.4929 159.307 88.152 159.307C86.902 159.307 85.8196 159.105 84.9048 158.702C83.9957 158.298 83.2798 157.736 82.7571 157.014C82.2401 156.293 81.9474 155.455 81.8793 154.5H84.0611C84.1179 155.159 84.3395 155.705 84.7259 156.136C85.1179 156.562 85.6122 156.881 86.2088 157.091C86.8111 157.295 87.4588 157.398 88.152 157.398C88.9588 157.398 89.6832 157.267 90.3253 157.006C90.9673 156.739 91.4759 156.369 91.8509 155.898C92.2259 155.42 92.4134 154.864 92.4134 154.227C92.4134 153.648 92.2514 153.176 91.9276 152.812C91.6037 152.449 91.1776 152.153 90.6491 151.926C90.1207 151.699 89.5497 151.5 88.9361 151.33L86.7884 150.716C85.4247 150.324 84.3452 149.764 83.5497 149.037C82.7543 148.31 82.3565 147.358 82.3565 146.182C82.3565 145.205 82.6207 144.352 83.1491 143.625C83.6832 142.892 84.3991 142.324 85.2969 141.92C86.2003 141.511 87.2088 141.307 88.3224 141.307C89.4474 141.307 90.4474 141.509 91.3224 141.912C92.1974 142.31 92.8906 142.855 93.402 143.548C93.919 144.241 94.1918 145.028 94.2202 145.909H92.1747ZM96.9794 143.42V141.545H110.07V143.42H104.582V159H102.468V143.42H96.9794ZM49.1136 199V181.545H55.0114C56.3807 181.545 57.5 181.793 58.3693 182.287C59.2443 182.776 59.892 183.438 60.3125 184.273C60.733 185.108 60.9432 186.04 60.9432 187.068C60.9432 188.097 60.733 189.031 60.3125 189.872C59.8977 190.713 59.2557 191.384 58.3864 191.884C57.517 192.378 56.4034 192.625 55.0455 192.625H50.8182V190.75H54.9773C55.9148 190.75 56.6676 190.588 57.2358 190.264C57.804 189.94 58.2159 189.503 58.4716 188.952C58.733 188.395 58.8636 187.767 58.8636 187.068C58.8636 186.369 58.733 185.744 58.4716 185.193C58.2159 184.642 57.8011 184.21 57.2273 183.898C56.6534 183.58 55.892 183.42 54.9432 183.42H51.2273V199H49.1136ZM75.8026 181.545H77.9162V193.102C77.9162 194.295 77.6349 195.361 77.0724 196.298C76.5156 197.23 75.7287 197.966 74.7116 198.506C73.6946 199.04 72.5014 199.307 71.1321 199.307C69.7628 199.307 68.5696 199.04 67.5526 198.506C66.5355 197.966 65.7457 197.23 65.1832 196.298C64.6264 195.361 64.348 194.295 64.348 193.102V181.545H66.4616V192.932C66.4616 193.784 66.6491 194.543 67.0241 195.207C67.3991 195.866 67.9332 196.386 68.6264 196.767C69.3253 197.142 70.1605 197.33 71.1321 197.33C72.1037 197.33 72.9389 197.142 73.6378 196.767C74.3366 196.386 74.8707 195.866 75.2401 195.207C75.6151 194.543 75.8026 193.784 75.8026 192.932V181.545ZM81.1825 183.42V181.545H94.2734V183.42H88.7848V199H86.6712V183.42H81.1825ZM54.5 239H49.1136V221.545H54.7386C56.4318 221.545 57.8807 221.895 59.0852 222.594C60.2898 223.287 61.2131 224.284 61.8551 225.585C62.4972 226.881 62.8182 228.432 62.8182 230.239C62.8182 232.057 62.4943 233.622 61.8466 234.935C61.1989 236.241 60.2557 237.247 59.017 237.952C57.7784 238.651 56.2727 239 54.5 239ZM51.2273 237.125H54.3636C55.8068 237.125 57.0028 236.847 57.9517 236.29C58.9006 235.733 59.608 234.94 60.0739 233.912C60.5398 232.884 60.7727 231.659 60.7727 230.239C60.7727 228.83 60.5426 227.616 60.0824 226.599C59.6222 225.577 58.9347 224.793 58.0199 224.247C57.1051 223.696 55.9659 223.42 54.6023 223.42H51.2273V237.125ZM66.3636 239V221.545H76.8977V223.42H68.4773V229.318H76.3523V231.193H68.4773V237.125H77.0341V239H66.3636ZM80.7074 239V221.545H82.821V237.125H90.9347V239H80.7074ZM94.2074 239V221.545H104.741V223.42H96.321V229.318H104.196V231.193H96.321V237.125H104.878V239H94.2074ZM107.597 223.42V221.545H120.688V223.42H115.199V239H113.085V223.42H107.597ZM123.95 239V221.545H134.484V223.42H126.063V229.318H133.938V231.193H126.063V237.125H134.62V239H123.95Z" fill="black"/>
<path d="M282.159 107H280.045C279.92 106.392 279.702 105.858 279.389 105.398C279.082 104.938 278.707 104.551 278.264 104.239C277.827 103.92 277.341 103.682 276.807 103.523C276.273 103.364 275.716 103.284 275.136 103.284C274.08 103.284 273.122 103.551 272.264 104.085C271.412 104.619 270.733 105.406 270.227 106.446C269.727 107.486 269.477 108.761 269.477 110.273C269.477 111.784 269.727 113.06 270.227 114.099C270.733 115.139 271.412 115.926 272.264 116.46C273.122 116.994 274.08 117.261 275.136 117.261C275.716 117.261 276.273 117.182 276.807 117.023C277.341 116.864 277.827 116.628 278.264 116.315C278.707 115.997 279.082 115.608 279.389 115.148C279.702 114.682 279.92 114.148 280.045 113.545H282.159C282 114.437 281.71 115.236 281.29 115.94C280.869 116.645 280.347 117.244 279.722 117.739C279.097 118.227 278.395 118.599 277.616 118.855C276.844 119.111 276.017 119.239 275.136 119.239C273.648 119.239 272.324 118.875 271.165 118.148C270.006 117.42 269.094 116.386 268.429 115.045C267.764 113.705 267.432 112.114 267.432 110.273C267.432 108.432 267.764 106.841 268.429 105.5C269.094 104.159 270.006 103.125 271.165 102.398C272.324 101.67 273.648 101.307 275.136 101.307C276.017 101.307 276.844 101.435 277.616 101.69C278.395 101.946 279.097 102.321 279.722 102.815C280.347 103.304 280.869 103.901 281.29 104.605C281.71 105.304 282 106.102 282.159 107ZM285.575 119V101.545H291.472C292.836 101.545 293.955 101.778 294.83 102.244C295.705 102.705 296.353 103.338 296.773 104.145C297.194 104.952 297.404 105.869 297.404 106.898C297.404 107.926 297.194 108.838 296.773 109.634C296.353 110.429 295.708 111.054 294.839 111.509C293.969 111.957 292.859 112.182 291.506 112.182H286.734V110.273H291.438C292.37 110.273 293.12 110.136 293.688 109.864C294.262 109.591 294.677 109.205 294.933 108.705C295.194 108.199 295.325 107.597 295.325 106.898C295.325 106.199 295.194 105.588 294.933 105.065C294.671 104.543 294.254 104.139 293.68 103.855C293.106 103.565 292.347 103.42 291.404 103.42H287.688V119H285.575ZM293.79 111.159L298.086 119H295.631L291.404 111.159H293.79ZM300.926 119V101.545H311.46V103.42H303.04V109.318H310.915V111.193H303.04V117.125H311.597V119H300.926ZM315.986 119H313.77L320.179 101.545H322.361L328.77 119H326.554L321.338 104.307H321.202L315.986 119ZM316.804 112.182H325.736V114.057H316.804V112.182ZM328.495 103.42V101.545H341.586V103.42H336.097V119H333.984V103.42H328.495ZM344.848 119V101.545H355.382V103.42H346.962V109.318H354.837V111.193H346.962V117.125H355.518V119H344.848ZM268.114 159V141.545H274.011C275.375 141.545 276.494 141.778 277.369 142.244C278.244 142.705 278.892 143.338 279.312 144.145C279.733 144.952 279.943 145.869 279.943 146.898C279.943 147.926 279.733 148.838 279.312 149.634C278.892 150.429 278.247 151.054 277.378 151.509C276.509 151.957 275.398 152.182 274.045 152.182H269.273V150.273H273.977C274.909 150.273 275.659 150.136 276.227 149.864C276.801 149.591 277.216 149.205 277.472 148.705C277.733 148.199 277.864 147.597 277.864 146.898C277.864 146.199 277.733 145.588 277.472 145.065C277.21 144.543 276.793 144.139 276.219 143.855C275.645 143.565 274.886 143.42 273.943 143.42H270.227V159H268.114ZM276.33 151.159L280.625 159H278.17L273.943 151.159H276.33ZM283.465 159V141.545H293.999V143.42H285.579V149.318H293.454V151.193H285.579V157.125H294.136V159H283.465ZM298.525 159H296.309L302.718 141.545H304.9L311.309 159H309.093L303.877 144.307H303.741L298.525 159ZM299.343 152.182H308.275V154.057H299.343V152.182ZM319.414 159H314.028V141.545H319.653C321.346 141.545 322.795 141.895 323.999 142.594C325.204 143.287 326.127 144.284 326.769 145.585C327.411 146.881 327.732 148.432 327.732 150.239C327.732 152.057 327.408 153.622 326.761 154.935C326.113 156.241 325.17 157.247 323.931 157.952C322.692 158.651 321.187 159 319.414 159ZM316.141 157.125H319.278C320.721 157.125 321.917 156.847 322.866 156.29C323.815 155.733 324.522 154.94 324.988 153.912C325.454 152.884 325.687 151.659 325.687 150.239C325.687 148.83 325.457 147.616 324.996 146.599C324.536 145.577 323.849 144.793 322.934 144.247C322.019 143.696 320.88 143.42 319.516 143.42H316.141V157.125ZM279.568 181.545H281.682V193.102C281.682 194.295 281.401 195.361 280.838 196.298C280.281 197.23 279.494 197.966 278.477 198.506C277.46 199.04 276.267 199.307 274.898 199.307C273.528 199.307 272.335 199.04 271.318 198.506C270.301 197.966 269.511 197.23 268.949 196.298C268.392 195.361 268.114 194.295 268.114 193.102V181.545H270.227V192.932C270.227 193.784 270.415 194.543 270.79 195.207C271.165 195.866 271.699 196.386 272.392 196.767C273.091 197.142 273.926 197.33 274.898 197.33C275.869 197.33 276.705 197.142 277.403 196.767C278.102 196.386 278.636 195.866 279.006 195.207C279.381 194.543 279.568 193.784 279.568 192.932V181.545ZM285.903 199V181.545H291.8C293.17 181.545 294.289 181.793 295.158 182.287C296.033 182.776 296.681 183.438 297.102 184.273C297.522 185.108 297.732 186.04 297.732 187.068C297.732 188.097 297.522 189.031 297.102 189.872C296.687 190.713 296.045 191.384 295.175 191.884C294.306 192.378 293.192 192.625 291.835 192.625H287.607V190.75H291.766C292.704 190.75 293.457 190.588 294.025 190.264C294.593 189.94 295.005 189.503 295.261 188.952C295.522 188.395 295.653 187.767 295.653 187.068C295.653 186.369 295.522 185.744 295.261 185.193C295.005 184.642 294.59 184.21 294.016 183.898C293.442 183.58 292.681 183.42 291.732 183.42H288.016V199H285.903ZM306.523 199H301.137V181.545H306.762C308.455 181.545 309.904 181.895 311.109 182.594C312.313 183.287 313.237 184.284 313.879 185.585C314.521 186.881 314.842 188.432 314.842 190.239C314.842 192.057 314.518 193.622 313.87 194.935C313.222 196.241 312.279 197.247 311.04 197.952C309.802 198.651 308.296 199 306.523 199ZM303.251 197.125H306.387C307.83 197.125 309.026 196.847 309.975 196.29C310.924 195.733 311.631 194.94 312.097 193.912C312.563 192.884 312.796 191.659 312.796 190.239C312.796 188.83 312.566 187.616 312.106 186.599C311.646 185.577 310.958 184.793 310.043 184.247C309.129 183.696 307.989 183.42 306.626 183.42H303.251V197.125ZM318.283 199H316.067L322.476 181.545H324.658L331.067 199H328.851L323.635 184.307H323.499L318.283 199ZM319.101 192.182H328.033V194.057H319.101V192.182ZM330.792 183.42V181.545H343.883V183.42H338.394V199H336.281V183.42H330.792ZM347.145 199V181.545H357.679V183.42H349.259V189.318H357.134V191.193H349.259V197.125H357.815V199H347.145ZM273.5 239H268.114V221.545H273.739C275.432 221.545 276.881 221.895 278.085 222.594C279.29 223.287 280.213 224.284 280.855 225.585C281.497 226.881 281.818 228.432 281.818 230.239C281.818 232.057 281.494 233.622 280.847 234.935C280.199 236.241 279.256 237.247 278.017 237.952C276.778 238.651 275.273 239 273.5 239ZM270.227 237.125H273.364C274.807 237.125 276.003 236.847 276.952 236.29C277.901 235.733 278.608 234.94 279.074 233.912C279.54 232.884 279.773 231.659 279.773 230.239C279.773 228.83 279.543 227.616 279.082 226.599C278.622 225.577 277.935 224.793 277.02 224.247C276.105 223.696 274.966 223.42 273.602 223.42H270.227V237.125ZM285.364 239V221.545H295.898V223.42H287.477V229.318H295.352V231.193H287.477V237.125H296.034V239H285.364ZM299.707 239V221.545H301.821V237.125H309.935V239H299.707ZM313.207 239V221.545H323.741V223.42H315.321V229.318H323.196V231.193H315.321V237.125H323.878V239H313.207ZM326.597 223.42V221.545H339.688V223.42H334.199V239H332.085V223.42H326.597ZM342.95 239V221.545H353.484V223.42H345.063V229.318H352.938V231.193H345.063V237.125H353.62V239H342.95Z" fill="black"/>
<g filter="url(#filter0_d_23_3)">
<path d="M148 112L151.566 116.54L153.715 111.182L148 112ZM249 152.5L245.434 147.96L243.285 153.318L249 152.5ZM148 152.5L153.715 153.318L151.566 147.96L148 152.5ZM249 112L243.285 111.182L245.434 116.54L249 112ZM249 188.5L244 185.613V191.387L249 188.5ZM148 188.5L153 191.387V185.613L148 188.5ZM148 230L153 232.887V227.113L148 230ZM249 230L244 227.113V232.887L249 230ZM151.991 114.139L244.637 151.289L245.009 150.361L152.363 113.211L151.991 114.139ZM152.363 151.289L245.009 114.139L244.637 113.211L151.991 150.361L152.363 151.289ZM244.5 188H152.5V189H244.5V188ZM152.5 230.5H244.5V229.5H152.5V230.5Z" fill="#0052B2"/>
</g>
<path d="M48.1378 50V36.9091H50.9055V42.3104H56.5241V36.9091H59.2855V50H56.5241V44.5923H50.9055V50H48.1378ZM61.0689 39.1911V36.9091H71.8203V39.1911H67.8125V50H65.0767V39.1911H61.0689ZM73.0923 39.1911V36.9091H83.8438V39.1911H79.8359V50H77.1001V39.1911H73.0923ZM85.6143 50V36.9091H90.7791C91.772 36.9091 92.6179 37.0987 93.3168 37.478C94.0156 37.853 94.5483 38.375 94.9148 39.044C95.2855 39.7088 95.4709 40.4759 95.4709 41.3452C95.4709 42.2145 95.2834 42.9815 94.9084 43.6463C94.5334 44.3111 93.9901 44.8288 93.2784 45.1996C92.571 45.5703 91.7145 45.7557 90.7088 45.7557H87.4169V43.5376H90.2614C90.794 43.5376 91.233 43.446 91.5781 43.2628C91.9276 43.0753 92.1875 42.8175 92.358 42.4893C92.5327 42.157 92.62 41.7756 92.62 41.3452C92.62 40.9105 92.5327 40.5312 92.358 40.2074C92.1875 39.8793 91.9276 39.6257 91.5781 39.4467C91.2287 39.2635 90.7855 39.1719 90.2486 39.1719H88.3821V50H85.6143ZM48.1378 56.9091H51.5511L55.1562 65.7045H55.3097L58.9148 56.9091H62.3281V70H59.6435V61.4794H59.5348L56.147 69.9361H54.3189L50.9311 61.4474H50.8224V70H48.1378V56.9091ZM69.0318 70.1918C68.0218 70.1918 67.1525 69.9872 66.4238 69.5781C65.6994 69.1648 65.1412 68.581 64.7491 67.8267C64.3571 67.0682 64.161 66.1712 64.161 65.1357C64.161 64.1257 64.3571 63.2393 64.7491 62.4766C65.1412 61.7138 65.693 61.1193 66.4047 60.6932C67.1206 60.267 67.96 60.054 68.9231 60.054C69.5708 60.054 70.1738 60.1584 70.7321 60.3672C71.2946 60.5717 71.7846 60.8807 72.2022 61.294C72.6241 61.7074 72.9522 62.2273 73.1866 62.8537C73.421 63.4759 73.5382 64.2045 73.5382 65.0398V65.7876H65.2477V64.1001H70.975C70.975 63.7081 70.8897 63.3608 70.7193 63.0582C70.5488 62.7557 70.3123 62.5192 70.0098 62.3487C69.7115 62.174 69.3642 62.0866 68.9679 62.0866C68.5545 62.0866 68.188 62.1825 67.8684 62.3743C67.5531 62.5618 67.3059 62.8153 67.127 63.1349C66.948 63.4503 66.8564 63.8018 66.8521 64.1896V65.794C66.8521 66.2798 66.9416 66.6996 67.1206 67.0533C67.3038 67.407 67.5616 67.6797 67.894 67.8714C68.2264 68.0632 68.6206 68.1591 69.0765 68.1591C69.3791 68.1591 69.6561 68.1165 69.9075 68.0312C70.1589 67.946 70.3741 67.8182 70.5531 67.6477C70.7321 67.4773 70.8684 67.2685 70.9622 67.0213L73.4806 67.1875C73.3528 67.7926 73.0907 68.321 72.6944 68.7727C72.3024 69.2202 71.7953 69.5696 71.1731 69.821C70.5552 70.0682 69.8414 70.1918 69.0318 70.1918ZM80.5375 60.1818V62.2273H74.6248V60.1818H80.5375ZM75.9672 57.8295H78.6902V66.983C78.6902 67.2344 78.7285 67.4304 78.8052 67.571C78.8819 67.7074 78.9885 67.8033 79.1248 67.8587C79.2654 67.9141 79.4274 67.9418 79.6106 67.9418C79.7385 67.9418 79.8663 67.9311 79.9941 67.9098C80.122 67.8842 80.22 67.8651 80.2882 67.8523L80.7164 69.8786C80.5801 69.9212 80.3883 69.9702 80.1412 70.0256C79.894 70.0852 79.5936 70.1214 79.2399 70.1342C78.5836 70.1598 78.0083 70.0724 77.514 69.8722C77.024 69.6719 76.6426 69.3608 76.3699 68.9389C76.0971 68.517 75.9629 67.9844 75.9672 67.3409V57.8295ZM85.2452 64.3239V70H82.5222V56.9091H85.1685V61.9141H85.2836C85.5051 61.3345 85.8631 60.8807 86.3574 60.5526C86.8517 60.2202 87.4718 60.054 88.2175 60.054C88.8993 60.054 89.4938 60.2031 90.0009 60.5014C90.5123 60.7955 90.9086 61.2195 91.1898 61.7734C91.4753 62.3232 91.6159 62.9815 91.6117 63.7486V70H88.8887V64.2344C88.8929 63.6293 88.7395 63.1584 88.4284 62.8217C88.1216 62.4851 87.6912 62.3168 87.1373 62.3168C86.7665 62.3168 86.4384 62.3956 86.1529 62.5533C85.8716 62.7109 85.65 62.9411 85.4881 63.2436C85.3304 63.5419 85.2495 63.902 85.2452 64.3239ZM98.1907 70.1918C97.1978 70.1918 96.3391 69.9808 95.6147 69.5589C94.8945 69.1328 94.3384 68.5405 93.9464 67.782C93.5543 67.0192 93.3583 66.1349 93.3583 65.1293C93.3583 64.1151 93.5543 63.2287 93.9464 62.4702C94.3384 61.7074 94.8945 61.1151 95.6147 60.6932C96.3391 60.267 97.1978 60.054 98.1907 60.054C99.1836 60.054 100.04 60.267 100.76 60.6932C101.485 61.1151 102.043 61.7074 102.435 62.4702C102.827 63.2287 103.023 64.1151 103.023 65.1293C103.023 66.1349 102.827 67.0192 102.435 67.782C102.043 68.5405 101.485 69.1328 100.76 69.5589C100.04 69.9808 99.1836 70.1918 98.1907 70.1918ZM98.2035 68.0824C98.6552 68.0824 99.0323 67.9545 99.3349 67.6989C99.6374 67.4389 99.8654 67.0852 100.019 66.6378C100.176 66.1903 100.255 65.6811 100.255 65.1101C100.255 64.5391 100.176 64.0298 100.019 63.5824C99.8654 63.1349 99.6374 62.7812 99.3349 62.5213C99.0323 62.2614 98.6552 62.1314 98.2035 62.1314C97.7475 62.1314 97.364 62.2614 97.0529 62.5213C96.7461 62.7812 96.5138 63.1349 96.3562 63.5824C96.2028 64.0298 96.1261 64.5391 96.1261 65.1101C96.1261 65.6811 96.2028 66.1903 96.3562 66.6378C96.5138 67.0852 96.7461 67.4389 97.0529 67.6989C97.364 67.9545 97.7475 68.0824 98.2035 68.0824ZM108.412 70.1598C107.666 70.1598 106.99 69.968 106.385 69.5845C105.784 69.1967 105.307 68.6278 104.953 67.8778C104.604 67.1236 104.429 66.1989 104.429 65.1037C104.429 63.9787 104.61 63.0433 104.973 62.2976C105.335 61.5476 105.816 60.9872 106.417 60.6165C107.022 60.2415 107.685 60.054 108.405 60.054C108.955 60.054 109.413 60.1477 109.779 60.3352C110.15 60.5185 110.449 60.7486 110.674 61.0256C110.904 61.2983 111.079 61.5668 111.199 61.831H111.282V56.9091H113.998V70H111.314V68.4276H111.199C111.071 68.7003 110.89 68.9709 110.655 69.2393C110.425 69.5036 110.125 69.723 109.754 69.8977C109.387 70.0724 108.94 70.1598 108.412 70.1598ZM109.275 67.9929C109.713 67.9929 110.084 67.8736 110.387 67.6349C110.694 67.392 110.928 67.0533 111.09 66.6186C111.256 66.1839 111.339 65.6747 111.339 65.0909C111.339 64.5071 111.258 64 111.096 63.5696C110.934 63.1392 110.7 62.8068 110.393 62.5724C110.086 62.3381 109.713 62.2209 109.275 62.2209C108.827 62.2209 108.45 62.3423 108.143 62.5852C107.836 62.8281 107.604 63.1648 107.446 63.5952C107.289 64.0256 107.21 64.5241 107.21 65.0909C107.21 65.6619 107.289 66.1669 107.446 66.6058C107.608 67.0405 107.841 67.3814 108.143 67.6286C108.45 67.8714 108.827 67.9929 109.275 67.9929ZM124.406 62.9815L121.913 63.1349C121.871 62.9219 121.779 62.7301 121.638 62.5597C121.498 62.3849 121.312 62.2464 121.082 62.1442C120.856 62.0376 120.586 61.9844 120.27 61.9844C119.849 61.9844 119.493 62.0739 119.203 62.2528C118.913 62.4276 118.768 62.6619 118.768 62.956C118.768 63.1903 118.862 63.3885 119.05 63.5504C119.237 63.7124 119.559 63.8423 120.015 63.9403L121.792 64.2983C122.746 64.4943 123.458 64.8097 123.927 65.2443C124.395 65.679 124.63 66.25 124.63 66.9574C124.63 67.6009 124.44 68.1655 124.061 68.6513C123.686 69.1371 123.17 69.5163 122.514 69.7891C121.862 70.0575 121.11 70.1918 120.258 70.1918C118.958 70.1918 117.922 69.9212 117.151 69.38C116.384 68.8345 115.934 68.093 115.802 67.1555L118.481 67.0149C118.562 67.4112 118.758 67.7138 119.069 67.9226C119.38 68.1271 119.778 68.2294 120.264 68.2294C120.741 68.2294 121.125 68.1378 121.415 67.9545C121.709 67.767 121.858 67.5263 121.862 67.2322C121.858 66.9851 121.753 66.7827 121.549 66.625C121.344 66.4631 121.029 66.3395 120.603 66.2543L118.903 65.9155C117.944 65.7237 117.23 65.3913 116.761 64.9183C116.297 64.4453 116.064 63.8423 116.064 63.1094C116.064 62.4787 116.235 61.9354 116.576 61.4794C116.921 61.0234 117.405 60.6719 118.027 60.4247C118.653 60.1776 119.386 60.054 120.226 60.054C121.466 60.054 122.442 60.3161 123.153 60.8402C123.869 61.3643 124.287 62.0781 124.406 62.9815Z" fill="#0052B2"/>
<path d="M277.688 44.4922H274.888C274.837 44.13 274.733 43.8082 274.575 43.527C274.418 43.2415 274.215 42.9986 273.968 42.7983C273.721 42.598 273.435 42.4446 273.112 42.3381C272.792 42.2315 272.445 42.1783 272.07 42.1783C271.392 42.1783 270.802 42.3466 270.299 42.6832C269.796 43.0156 269.406 43.5014 269.129 44.1406C268.852 44.7756 268.714 45.5469 268.714 46.4545C268.714 47.3878 268.852 48.1719 269.129 48.8068C269.411 49.4418 269.803 49.9212 270.305 50.245C270.808 50.5689 271.39 50.7308 272.05 50.7308C272.421 50.7308 272.764 50.6818 273.08 50.5838C273.399 50.4858 273.683 50.343 273.93 50.1555C274.177 49.9638 274.381 49.7315 274.543 49.4588C274.71 49.1861 274.825 48.875 274.888 48.5256L277.688 48.5384C277.616 49.1392 277.435 49.7188 277.145 50.277C276.859 50.831 276.474 51.3274 275.988 51.7663C275.506 52.201 274.931 52.5462 274.262 52.8018C273.597 53.0533 272.845 53.179 272.006 53.179C270.838 53.179 269.794 52.9148 268.874 52.3864C267.957 51.858 267.233 51.093 266.7 50.0916C266.172 49.0902 265.908 47.8778 265.908 46.4545C265.908 45.027 266.176 43.8125 266.713 42.8111C267.25 41.8097 267.979 41.0469 268.899 40.5227C269.82 39.9943 270.855 39.7301 272.006 39.7301C272.764 39.7301 273.467 39.8366 274.115 40.0497C274.767 40.2628 275.344 40.5739 275.847 40.983C276.35 41.3878 276.759 41.8842 277.075 42.4723C277.394 43.0604 277.599 43.7337 277.688 44.4922ZM279.673 53V39.9091H284.838C285.826 39.9091 286.67 40.0859 287.369 40.4396C288.072 40.7891 288.607 41.2855 288.973 41.929C289.344 42.5682 289.529 43.3203 289.529 44.1854C289.529 45.0547 289.342 45.8026 288.967 46.429C288.592 47.0511 288.049 47.5284 287.337 47.8608C286.63 48.1932 285.773 48.3594 284.767 48.3594H281.309V46.1349H284.32C284.848 46.1349 285.287 46.0625 285.637 45.9176C285.986 45.7727 286.246 45.5554 286.417 45.2656C286.591 44.9759 286.679 44.6158 286.679 44.1854C286.679 43.7507 286.591 43.3842 286.417 43.0859C286.246 42.7876 285.984 42.5618 285.63 42.4084C285.281 42.2507 284.84 42.1719 284.307 42.1719H282.441V53H279.673ZM286.743 47.0426L289.996 53H286.941L283.757 47.0426H286.743ZM299.571 39.9091H302.339V48.4105C302.339 49.3651 302.111 50.2003 301.655 50.9162C301.203 51.6321 300.571 52.1903 299.757 52.5909C298.943 52.9872 297.995 53.1854 296.912 53.1854C295.826 53.1854 294.875 52.9872 294.061 52.5909C293.248 52.1903 292.615 51.6321 292.163 50.9162C291.711 50.2003 291.485 49.3651 291.485 48.4105V39.9091H294.253V48.174C294.253 48.6726 294.362 49.1158 294.579 49.5036C294.801 49.8913 295.112 50.196 295.512 50.4176C295.913 50.6392 296.38 50.75 296.912 50.75C297.449 50.75 297.916 50.6392 298.312 50.4176C298.713 50.196 299.022 49.8913 299.239 49.5036C299.461 49.1158 299.571 48.6726 299.571 48.174V39.9091ZM309.257 53H304.616V39.9091H309.295C310.612 39.9091 311.746 40.1712 312.696 40.6953C313.646 41.2152 314.377 41.9631 314.888 42.9389C315.404 43.9148 315.662 45.0824 315.662 46.4418C315.662 47.8054 315.404 48.9773 314.888 49.9574C314.377 50.9375 313.642 51.6896 312.683 52.2138C311.729 52.7379 310.586 53 309.257 53ZM307.384 50.6286H309.142C309.96 50.6286 310.648 50.4837 311.206 50.1939C311.769 49.8999 312.191 49.446 312.472 48.8324C312.758 48.2145 312.9 47.4176 312.9 46.4418C312.9 45.4744 312.758 44.6839 312.472 44.0703C312.191 43.4567 311.771 43.005 311.213 42.7152C310.655 42.4254 309.966 42.2805 309.148 42.2805H307.384V50.6286ZM278.168 66.4545C278.168 67.8821 277.897 69.0966 277.356 70.098C276.819 71.0994 276.086 71.8643 275.157 72.3928C274.232 72.9169 273.192 73.179 272.038 73.179C270.874 73.179 269.83 72.9148 268.906 72.3864C267.981 71.858 267.25 71.093 266.713 70.0916C266.176 69.0902 265.908 67.8778 265.908 66.4545C265.908 65.027 266.176 63.8125 266.713 62.8111C267.25 61.8097 267.981 61.0469 268.906 60.5227C269.83 59.9943 270.874 59.7301 272.038 59.7301C273.192 59.7301 274.232 59.9943 275.157 60.5227C276.086 61.0469 276.819 61.8097 277.356 62.8111C277.897 63.8125 278.168 65.027 278.168 66.4545ZM275.362 66.4545C275.362 65.5298 275.223 64.75 274.946 64.1151C274.673 63.4801 274.288 62.9986 273.789 62.6705C273.29 62.3423 272.707 62.1783 272.038 62.1783C271.369 62.1783 270.785 62.3423 270.286 62.6705C269.788 62.9986 269.4 63.4801 269.123 64.1151C268.85 64.75 268.714 65.5298 268.714 66.4545C268.714 67.3793 268.85 68.1591 269.123 68.794C269.4 69.429 269.788 69.9105 270.286 70.2386C270.785 70.5668 271.369 70.7308 272.038 70.7308C272.707 70.7308 273.29 70.5668 273.789 70.2386C274.288 69.9105 274.673 69.429 274.946 68.794C275.223 68.1591 275.362 67.3793 275.362 66.4545ZM280.167 76.6818V63.1818H282.851V64.831H282.973C283.092 64.5668 283.265 64.2983 283.491 64.0256C283.721 63.7486 284.019 63.5185 284.385 63.3352C284.756 63.1477 285.216 63.054 285.766 63.054C286.482 63.054 287.143 63.2415 287.748 63.6165C288.353 63.9872 288.836 64.5476 289.199 65.2976C289.561 66.0433 289.742 66.9787 289.742 68.1037C289.742 69.1989 289.565 70.1236 289.211 70.8778C288.862 71.6278 288.385 72.1967 287.78 72.5845C287.179 72.968 286.506 73.1598 285.76 73.1598C285.231 73.1598 284.782 73.0724 284.411 72.8977C284.045 72.723 283.744 72.5036 283.51 72.2393C283.275 71.9709 283.096 71.7003 282.973 71.4276H282.89V76.6818H280.167ZM282.832 68.0909C282.832 68.6747 282.913 69.1839 283.075 69.6186C283.237 70.0533 283.471 70.392 283.778 70.6349C284.085 70.8736 284.458 70.9929 284.897 70.9929C285.34 70.9929 285.715 70.8714 286.022 70.6286C286.329 70.3814 286.561 70.0405 286.719 69.6058C286.881 69.1669 286.961 68.6619 286.961 68.0909C286.961 67.5241 286.883 67.0256 286.725 66.5952C286.567 66.1648 286.335 65.8281 286.028 65.5852C285.721 65.3423 285.344 65.2209 284.897 65.2209C284.454 65.2209 284.079 65.3381 283.772 65.5724C283.469 65.8068 283.237 66.1392 283.075 66.5696C282.913 67 282.832 67.5071 282.832 68.0909ZM296.032 73.1918C295.022 73.1918 294.153 72.9872 293.424 72.5781C292.699 72.1648 292.141 71.581 291.749 70.8267C291.357 70.0682 291.161 69.1712 291.161 68.1357C291.161 67.1257 291.357 66.2393 291.749 65.4766C292.141 64.7138 292.693 64.1193 293.405 63.6932C294.121 63.267 294.96 63.054 295.923 63.054C296.571 63.054 297.174 63.1584 297.732 63.3672C298.295 63.5717 298.785 63.8807 299.202 64.294C299.624 64.7074 299.952 65.2273 300.187 65.8537C300.421 66.4759 300.538 67.2045 300.538 68.0398V68.7876H292.248V67.1001H297.975C297.975 66.7081 297.89 66.3608 297.719 66.0582C297.549 65.7557 297.312 65.5192 297.01 65.3487C296.711 65.174 296.364 65.0866 295.968 65.0866C295.555 65.0866 295.188 65.1825 294.868 65.3743C294.553 65.5618 294.306 65.8153 294.127 66.1349C293.948 66.4503 293.856 66.8018 293.852 67.1896V68.794C293.852 69.2798 293.942 69.6996 294.121 70.0533C294.304 70.407 294.562 70.6797 294.894 70.8714C295.226 71.0632 295.621 71.1591 296.077 71.1591C296.379 71.1591 296.656 71.1165 296.907 71.0312C297.159 70.946 297.374 70.8182 297.553 70.6477C297.732 70.4773 297.868 70.2685 297.962 70.0213L300.481 70.1875C300.353 70.7926 300.091 71.321 299.694 71.7727C299.302 72.2202 298.795 72.5696 298.173 72.821C297.555 73.0682 296.841 73.1918 296.032 73.1918ZM302.315 73V63.1818H304.955V64.8949H305.057C305.236 64.2855 305.537 63.8253 305.959 63.5142C306.381 63.1989 306.866 63.0412 307.416 63.0412C307.552 63.0412 307.699 63.0497 307.857 63.0668C308.015 63.0838 308.153 63.1072 308.273 63.1371V65.5533C308.145 65.5149 307.968 65.4808 307.742 65.451C307.516 65.4212 307.309 65.4062 307.122 65.4062C306.721 65.4062 306.363 65.4936 306.048 65.6683C305.737 65.8388 305.49 66.0774 305.307 66.3842C305.128 66.6911 305.038 67.0447 305.038 67.4453V73H302.315ZM312.199 73.1854C311.572 73.1854 311.014 73.0767 310.524 72.8594C310.034 72.6378 309.646 72.3118 309.361 71.8814C309.08 71.4467 308.939 70.9055 308.939 70.2578C308.939 69.7124 309.039 69.2543 309.239 68.8835C309.44 68.5128 309.712 68.2145 310.058 67.9886C310.403 67.7628 310.795 67.5923 311.234 67.4773C311.677 67.3622 312.141 67.2812 312.627 67.2344C313.198 67.1747 313.658 67.1193 314.008 67.0682C314.357 67.0128 314.611 66.9318 314.768 66.8253C314.926 66.7187 315.005 66.5611 315.005 66.3523V66.3139C315.005 65.9091 314.877 65.5959 314.621 65.3743C314.37 65.1527 314.012 65.0419 313.548 65.0419C313.058 65.0419 312.668 65.1506 312.378 65.3679C312.088 65.581 311.896 65.8494 311.803 66.1733L309.284 65.9688C309.412 65.3722 309.663 64.8565 310.038 64.4219C310.413 63.983 310.897 63.6463 311.489 63.4119C312.086 63.1733 312.776 63.054 313.56 63.054C314.106 63.054 314.628 63.1179 315.126 63.2457C315.629 63.3736 316.075 63.5717 316.462 63.8402C316.854 64.1087 317.163 64.4538 317.389 64.8757C317.615 65.2933 317.728 65.794 317.728 66.3778V73H315.146V71.6385H315.069C314.911 71.9453 314.7 72.2159 314.436 72.4503C314.172 72.6804 313.854 72.8615 313.484 72.9936C313.113 73.1214 312.685 73.1854 312.199 73.1854ZM312.979 71.3061C313.379 71.3061 313.733 71.2273 314.04 71.0696C314.347 70.9077 314.587 70.6903 314.762 70.4176C314.937 70.1449 315.024 69.8359 315.024 69.4908V68.4489C314.939 68.5043 314.822 68.5554 314.673 68.6023C314.528 68.6449 314.364 68.6854 314.18 68.7237C313.997 68.7578 313.814 68.7898 313.631 68.8196C313.447 68.8452 313.281 68.8686 313.132 68.8899C312.813 68.9368 312.533 69.0114 312.295 69.1136C312.056 69.2159 311.871 69.3544 311.739 69.5291C311.607 69.6996 311.54 69.9126 311.54 70.1683C311.54 70.5391 311.675 70.8224 311.943 71.0185C312.216 71.2102 312.561 71.3061 312.979 71.3061ZM325.063 63.1818V65.2273H319.15V63.1818H325.063ZM320.493 60.8295H323.216V69.983C323.216 70.2344 323.254 70.4304 323.331 70.571C323.407 70.7074 323.514 70.8033 323.65 70.8587C323.791 70.9141 323.953 70.9418 324.136 70.9418C324.264 70.9418 324.392 70.9311 324.52 70.9098C324.647 70.8842 324.745 70.8651 324.814 70.8523L325.242 72.8786C325.105 72.9212 324.914 72.9702 324.667 73.0256C324.419 73.0852 324.119 73.1214 323.765 73.1342C323.109 73.1598 322.534 73.0724 322.039 72.8722C321.549 72.6719 321.168 72.3608 320.895 71.9389C320.623 71.517 320.488 70.9844 320.493 70.3409V60.8295ZM326.837 73V63.1818H329.56V73H326.837ZM328.205 61.9162C327.8 61.9162 327.452 61.782 327.163 61.5135C326.877 61.2408 326.734 60.9148 326.734 60.5355C326.734 60.1605 326.877 59.8388 327.163 59.5703C327.452 59.2976 327.8 59.1612 328.205 59.1612C328.609 59.1612 328.955 59.2976 329.24 59.5703C329.53 59.8388 329.675 60.1605 329.675 60.5355C329.675 60.9148 329.53 61.2408 329.24 61.5135C328.955 61.782 328.609 61.9162 328.205 61.9162ZM336.177 73.1918C335.184 73.1918 334.325 72.9808 333.601 72.5589C332.881 72.1328 332.325 71.5405 331.933 70.782C331.541 70.0192 331.345 69.1349 331.345 68.1293C331.345 67.1151 331.541 66.2287 331.933 65.4702C332.325 64.7074 332.881 64.1151 333.601 63.6932C334.325 63.267 335.184 63.054 336.177 63.054C337.17 63.054 338.026 63.267 338.747 63.6932C339.471 64.1151 340.029 64.7074 340.421 65.4702C340.813 66.2287 341.009 67.1151 341.009 68.1293C341.009 69.1349 340.813 70.0192 340.421 70.782C340.029 71.5405 339.471 72.1328 338.747 72.5589C338.026 72.9808 337.17 73.1918 336.177 73.1918ZM336.19 71.0824C336.642 71.0824 337.019 70.9545 337.321 70.6989C337.624 70.4389 337.852 70.0852 338.005 69.6378C338.163 69.1903 338.242 68.6811 338.242 68.1101C338.242 67.5391 338.163 67.0298 338.005 66.5824C337.852 66.1349 337.624 65.7812 337.321 65.5213C337.019 65.2614 336.642 65.1314 336.19 65.1314C335.734 65.1314 335.35 65.2614 335.039 65.5213C334.732 65.7812 334.5 66.1349 334.343 66.5824C334.189 67.0298 334.112 67.5391 334.112 68.1101C334.112 68.6811 334.189 69.1903 334.343 69.6378C334.5 70.0852 334.732 70.4389 335.039 70.6989C335.35 70.9545 335.734 71.0824 336.19 71.0824ZM345.503 67.3239V73H342.78V63.1818H345.375V64.9141H345.49C345.708 64.343 346.072 63.8913 346.583 63.5589C347.095 63.2223 347.715 63.054 348.443 63.054C349.125 63.054 349.72 63.2031 350.227 63.5014C350.734 63.7997 351.128 64.2259 351.409 64.7798C351.691 65.3295 351.831 65.9858 351.831 66.7486V73H349.108V67.2344C349.112 66.6335 348.959 66.1648 348.648 65.8281C348.337 65.4872 347.909 65.3168 347.363 65.3168C346.997 65.3168 346.673 65.3956 346.392 65.5533C346.115 65.7109 345.897 65.9411 345.74 66.2436C345.586 66.5419 345.507 66.902 345.503 67.3239ZM362.146 65.9815L359.653 66.1349C359.611 65.9219 359.519 65.7301 359.379 65.5597C359.238 65.3849 359.053 65.2464 358.822 65.1442C358.597 65.0376 358.326 64.9844 358.011 64.9844C357.589 64.9844 357.233 65.0739 356.943 65.2528C356.653 65.4276 356.509 65.6619 356.509 65.956C356.509 66.1903 356.602 66.3885 356.79 66.5504C356.977 66.7124 357.299 66.8423 357.755 66.9403L359.532 67.2983C360.487 67.4943 361.198 67.8097 361.667 68.2443C362.136 68.679 362.37 69.25 362.37 69.9574C362.37 70.6009 362.18 71.1655 361.801 71.6513C361.426 72.1371 360.911 72.5163 360.254 72.7891C359.602 73.0575 358.85 73.1918 357.998 73.1918C356.698 73.1918 355.663 72.9212 354.891 72.38C354.124 71.8345 353.675 71.093 353.543 70.1555L356.221 70.0149C356.302 70.4112 356.498 70.7138 356.809 70.9226C357.12 71.1271 357.518 71.2294 358.004 71.2294C358.482 71.2294 358.865 71.1378 359.155 70.9545C359.449 70.767 359.598 70.5263 359.602 70.2322C359.598 69.9851 359.494 69.7827 359.289 69.625C359.085 69.4631 358.769 69.3395 358.343 69.2543L356.643 68.9155C355.684 68.7237 354.97 68.3913 354.501 67.9183C354.037 67.4453 353.805 66.8423 353.805 66.1094C353.805 65.4787 353.975 64.9354 354.316 64.4794C354.661 64.0234 355.145 63.6719 355.767 63.4247C356.393 63.1776 357.126 63.054 357.966 63.054C359.206 63.054 360.182 63.3161 360.893 63.8402C361.609 64.3643 362.027 65.0781 362.146 65.9815Z" fill="#0052B2"/>
<defs>
<filter id="filter0_d_23_3" x="144" y="111.182" width="109" height="129.705" filterUnits="userSpaceOnUse" color-interpolation-filters="sRGB">
<feFlood flood-opacity="0" result="BackgroundImageFix"/>
<feColorMatrix in="SourceAlpha" type="matrix" values="0 0 0 0 0 0 0 0 0 0 0 0 0 0 0 0 0 0 127 0" result="hardAlpha"/>
<feOffset dy="4"/>
<feGaussianBlur stdDeviation="2"/>
<feComposite in2="hardAlpha" operator="out"/>
<feColorMatrix type="matrix" values="0 0 0 0 0 0 0 0 0 0 0 0 0 0 0 0 0 0 0.25 0"/>
<feBlend mode="normal" in2="BackgroundImageFix" result="effect1_dropShadow_23_3"/>
<feBlend mode="normal" in="SourceGraphic" in2="effect1_dropShadow_23_3" result="shape"/>
</filter>
</defs>
</svg>
